<svg xmlns="http://www.w3.org/2000/svg" xmlns:xlink="http://www.w3.org/1999/xlink" version="1.1" id="Layer_1" x="0px" y="0px" width="100%" viewBox="0 0 1559 1855" enable-background="new 0 0 1559 1855" xml:space="preserve">

<path fill="#999C9E" opacity="1.000000" stroke="none" d=" M1309.531372,1.000003   C1310.633423,1.662875 1311.171265,2.762806 1311.914185,2.925166   C1335.063965,7.985157 1352.661743,20.747572 1364.989258,40.910988   C1372.033325,52.432434 1375.930908,64.826164 1376.029419,78.431999   C1376.274048,112.189865 1376.859497,145.946121 1376.956421,179.704010   C1377.116577,235.522202 1377.011475,291.341187 1376.987549,347.159821   C1376.983887,355.520966 1376.850342,363.876648 1373.071167,371.659241   C1367.164551,383.822632 1356.818726,388.893677 1343.965088,389.986847   C1342.807129,390.085297 1341.633545,390.000000 1340.467163,390.000000   C905.914795,390.000000 471.362396,389.994720 36.810024,390.022186   C21.585552,390.023132 9.843413,384.411469 3.005564,370.228973   C2.768097,369.736420 2.168561,369.418427 1.368891,369.009521   C1.000000,267.312439 1.000000,165.624878 1.317805,63.772835   C3.448768,58.634842 4.852668,53.463627 7.143819,48.721039   C18.936848,24.309950 37.463261,8.200807 64.582649,2.897047   C65.156807,2.784757 65.531990,1.655067 66.000000,1.000000   C480.354248,1.000000 894.708496,1.000000 1309.531372,1.000003  z"/>
<path fill="#999C9E" opacity="1.000000" stroke="none" d=" M1131.468628,1856.000000   C1130.448486,1855.341309 1129.937500,1854.146606 1129.339355,1854.101318   C1107.122559,1852.417969 1085.338867,1848.125244 1064.058105,1841.830688   C1047.736328,1837.002686 1031.657593,1831.166016 1015.849365,1824.833130   C993.567871,1815.907227 972.780212,1803.934204 952.727905,1790.818604   C942.902893,1784.392334 933.414734,1777.320190 924.451111,1769.740112   C912.602722,1759.720581 901.064819,1749.273315 890.033447,1738.362915   C874.358887,1722.859863 860.385986,1705.787476 848.263245,1687.389771   C838.778931,1672.996094 829.551880,1658.305786 821.728943,1642.972534   C807.656433,1615.390137 796.479065,1586.540527 790.132141,1556.125977   C786.737671,1539.859375 783.623596,1523.404297 782.249390,1506.879028   C780.508179,1485.938965 779.373108,1464.783447 780.310730,1443.825195   C781.646973,1413.955811 786.873291,1384.548218 795.501465,1355.743530   C803.150513,1330.207397 812.953064,1305.619263 825.494202,1282.175293   C836.974182,1260.714966 849.889160,1240.050903 865.973877,1221.701294   C879.386230,1206.400391 893.023438,1191.190918 907.702881,1177.133301   C925.914612,1159.693115 946.450195,1144.996582 968.104736,1132.025146   C995.862549,1115.397949 1025.025757,1101.705322 1056.264160,1093.073975   C1073.630249,1088.275635 1091.289307,1084.279419 1109.039185,1081.211060   C1123.071655,1078.785400 1137.438599,1078.267944 1151.667480,1077.021973   C1157.418579,1076.518433 1163.198608,1076.027466 1168.963013,1076.054565   C1189.234985,1076.150024 1209.347900,1077.957520 1229.450317,1080.806763   C1252.448975,1084.066650 1274.797363,1089.705322 1296.697876,1097.105225   C1331.317017,1108.802368 1363.669800,1125.283447 1393.459595,1146.382568   C1407.209351,1156.121094 1419.936890,1167.355469 1432.752075,1178.349854   C1459.040161,1200.902588 1480.440552,1227.727417 1499.088623,1256.728516   C1514.727661,1281.049927 1527.991577,1306.718872 1536.815186,1334.312500   C1543.286133,1354.548096 1548.823853,1375.130615 1553.670532,1395.817871   C1556.306519,1407.069092 1556.608643,1418.864502 1558.032349,1430.406006   C1558.202271,1431.783325 1558.807739,1433.106934 1559.605713,1434.227783   C1560.000000,1455.354248 1560.000000,1476.708496 1559.571533,1498.555908   C1558.766357,1499.669189 1558.132812,1500.257812 1558.052002,1500.914429   C1556.993286,1509.527100 1556.638672,1518.279297 1554.884155,1526.742798   C1550.961548,1545.666626 1547.530396,1564.822144 1541.701050,1583.185425   C1535.427002,1602.949707 1527.222290,1622.176758 1518.736572,1641.135254   C1513.572998,1652.671509 1506.522827,1663.402100 1499.900879,1674.238281   C1487.753418,1694.116577 1473.655151,1712.603394 1457.735840,1729.578369   C1447.865723,1740.103027 1437.495605,1750.252075 1426.580200,1759.678223   C1414.333862,1770.253662 1401.720337,1780.559326 1388.362061,1789.653931   C1369.783936,1802.302490 1350.105835,1813.156860 1329.481812,1822.358032   C1309.664429,1831.199097 1289.305908,1838.350098 1268.406250,1843.868164   C1249.321533,1848.906982 1229.937378,1852.725098 1210.158936,1854.086426   C1209.399048,1854.138794 1208.717896,1855.336182 1208.000000,1856.000000   C1182.645752,1856.000000 1157.291504,1856.000000 1131.468628,1856.000000  M1339.000000,1578.500000   C1303.888062,1543.389038 1268.775757,1508.278320 1233.664307,1473.166870   C1228.995117,1468.497803 1228.996460,1468.495483 1233.522705,1463.969238   C1282.665283,1414.827271 1331.748047,1365.625122 1381.019775,1316.612793   C1387.837158,1309.831421 1391.422607,1297.009399 1385.431519,1288.151978   C1381.590820,1282.473511 1376.725708,1277.414917 1371.899902,1272.489746   C1358.964478,1259.287842 1345.104980,1259.392700 1331.992432,1272.504517   C1283.673584,1320.820557 1235.352783,1369.134644 1187.061279,1417.477905   C1185.571899,1418.968750 1184.399170,1420.776123 1182.881348,1422.683960   C1180.887451,1420.557495 1179.670532,1419.184814 1178.375977,1417.889893   C1127.472046,1366.973633 1076.562500,1316.063110 1025.649414,1265.156006   C1017.164490,1256.671997 1004.883972,1255.115601 995.399597,1262.338501   C988.851074,1267.325439 982.570312,1273.034912 977.449341,1279.443970   C968.408936,1290.758179 969.398315,1303.124390 980.248413,1313.900757   C1030.740356,1364.049316 1080.956665,1414.475586 1131.337646,1464.736084   C1132.704102,1466.099243 1134.820312,1466.710815 1136.869507,1467.826904   C1125.555298,1479.068237 1115.959717,1488.553223 1106.416992,1498.091309   C1065.867798,1538.621094 1025.326172,1579.158447 984.800659,1619.711792   C974.463318,1630.056274 972.538757,1643.740601 980.515686,1653.822266   C984.418884,1658.755371 989.460266,1662.772949 993.822449,1667.360962   C1004.429016,1678.516235 1019.346863,1678.280396 1030.133911,1667.451904   C1079.299194,1618.097168 1128.610962,1568.888062 1177.874878,1519.631592   C1179.147461,1518.359131 1180.476074,1517.142700 1181.984497,1515.703735   C1183.460815,1517.099976 1184.796875,1518.303833 1186.067017,1519.573608   C1234.507935,1568.003296 1282.940430,1616.441162 1331.380493,1664.871704   C1340.896484,1674.385864 1355.153320,1674.332397 1364.725464,1664.772217   C1369.560181,1659.943604 1374.401245,1655.121460 1379.218018,1650.275024   C1387.385376,1642.056885 1387.329834,1626.858887 1379.089722,1618.603394   C1365.903198,1605.392212 1352.697510,1592.200195 1339.000000,1578.500000  z"/>


<path fill="#999C9E" opacity="1.000000" stroke="none" d=" M1129.000000,464.000000   C1196.159912,464.000000 1262.819946,464.054474 1329.479614,463.933044   C1338.083618,463.917358 1346.892578,468.677612 1349.642456,479.293884   C1351.292480,485.664490 1348.455444,491.089020 1344.093506,495.258240   C1330.463135,508.286224 1316.506104,520.972107 1302.707397,533.824524   C1296.523560,539.584351 1290.377808,545.386108 1284.280884,551.237732   C1274.337280,560.781189 1264.516113,570.453064 1254.520264,579.941223   C1237.098877,596.477905 1219.590332,612.922668 1202.106323,629.393188   C1191.015991,639.840637 1179.893677,650.254089 1168.804321,660.702515   C1156.866333,671.950500 1144.957153,683.228821 1133.022705,694.480408   C1121.694092,705.160767 1110.344849,715.819336 1099.012573,726.495728   C1087.316650,737.514771 1075.635986,748.549988 1063.937988,759.566589   C1052.724731,770.126526 1041.485718,780.659180 1030.279175,791.226318   C1018.103271,802.707458 1005.977539,814.241882 993.781433,825.701477   C984.134338,834.765991 974.408264,843.746399 964.728271,852.775940   C959.401489,857.744873 954.522461,863.337463 948.635620,867.512451   C944.621704,870.359253 939.216003,872.770630 934.428406,872.778442   C770.445435,873.044678 606.461914,873.045105 442.478912,872.775818   C437.699310,872.768005 432.528229,870.087402 428.259766,867.476013   C423.971619,864.852478 420.521759,860.821777 416.815918,857.290894   C408.044006,848.933167 399.369537,840.473083 390.598206,832.114746   C377.759308,819.880249 364.887787,807.679871 351.997070,795.500000   C340.801270,784.921570 329.551422,774.400330 318.340332,763.838074   C306.523193,752.704956 294.732544,741.543701 282.913788,730.412354   C271.822235,719.966125 260.694519,709.558167 249.609497,699.105042   C237.312729,687.509277 225.073959,675.851990 212.757507,664.277283   C203.232651,655.325928 193.577850,646.512634 184.069092,637.544434   C170.682770,624.918945 157.397766,612.186096 144.032486,599.538208   C132.724014,588.836609 121.358780,578.195068 110.026581,567.518616   C98.330765,556.499512 86.650574,545.463806 74.952408,534.447266   C63.739067,523.887329 52.487488,513.367920 41.303654,502.776886   C37.628571,499.296661 33.884670,495.845947 30.578211,492.029968   C25.826817,486.546387 26.032352,480.395142 29.343752,474.248505   C32.712521,467.995392 38.154716,464.779144 45.115158,464.021332   C46.432770,463.877899 47.779324,464.000061 49.112522,464.000061   C408.908356,464.000031 768.704163,464.000000 1129.000000,464.000000  z"/>
<path fill="#999C9E" opacity="1.000000" stroke="none" d=" M922.000000,1027.000000   C922.000000,1042.500000 921.920410,1057.500610 922.061218,1072.499268   C922.092651,1075.840942 920.875427,1077.589233 918.118835,1079.614258   C901.396362,1091.897949 884.513855,1104.030029 868.541504,1117.247925   C855.930969,1127.683838 843.966003,1139.056885 832.747009,1150.985229   C809.029663,1176.202148 788.430969,1203.897339 771.082336,1233.882812   C754.236328,1262.999512 740.691895,1293.634644 730.669189,1325.770264   C724.170776,1346.606079 718.750122,1367.725586 716.029968,1389.422485   C714.113647,1404.708008 712.124207,1420.017334 711.145203,1435.378296   C710.143127,1451.102051 709.565002,1466.933716 710.220642,1482.658936   C710.854370,1497.857910 713.180176,1512.995361 714.969116,1528.135376   C718.461670,1557.694824 725.934753,1586.350830 736.124695,1614.217041   C742.989075,1632.989014 751.235718,1651.255615 759.072571,1670.253784   C754.124695,1672.604248 748.322815,1675.395630 742.490479,1678.121826   C735.411072,1681.430786 728.284058,1684.638184 721.216309,1687.971680   C702.335754,1696.876343 683.498779,1705.873779 664.602295,1714.744385   C637.303223,1727.559204 609.958923,1740.277466 582.649292,1753.069824   C562.279297,1762.611572 541.935974,1772.210205 521.575378,1781.772095   C515.671936,1784.544312 509.797913,1787.386230 503.827545,1790.007446   C485.140411,1798.211426 465.386353,1790.719360 459.480591,1769.927002   C459.039429,1768.373901 459.018402,1766.664795 459.018280,1765.028198   C458.999237,1502.029053 458.998535,1239.029907 459.003845,976.030823   C459.004150,960.713867 472.580566,947.007935 487.790253,947.006653   C622.956482,946.995361 758.122681,946.988098 893.288940,947.017151   C907.814697,947.020264 922.358826,960.363220 922.070129,976.003113   C921.759521,992.830078 922.000000,1009.667297 922.000000,1027.000000  z"/>

</svg>