<svg xmlns="http://www.w3.org/2000/svg" version="1.2" viewBox="0 0 405 430" width="100%" fill="#999c9e">
		
		<path d="m322.3 93c4.2 0 7.7-3.5 7.7-7.7v-65.8c0-10.8-8.7-19.5-19.5-19.5h-291.4c-10.6 0-19.1 8.5-19.1 19.1v66.2c0 4.2 3.5 7.7 7.7 7.7z"/>
		<path d="m273 140.3c8.1-0.1 16.1 0.6 23.9 1.9l25.3-23.9c3-2.7 0.8-7.3-3.6-7.3h-307.3c-4.3 0-6.5 4.6-3.5 7.3l94.7 89.3c1 0.9 2.3 1.4 3.6 1.4h43.6c25.5-41.3 71.2-68.8 123.3-68.8z"/>
		
		<path d="m128 285.3c0-20.8 4.4-40.5 12.2-58.3h-23c-4 0-7.2 3.2-7.2 7.2v188.5c0 5.3 5.5 8.7 10.3 6.5l61.7-28.9q-1-1.8-1.8-3.7c-31.9-26.6-52.2-66.6-52.2-111.4z"/>
		<path d="m405 285.5c0 71.5-58 129.4-129.5 129.4-31.5 0-60.4-11.2-82.9-30-28.5-23.7-46.6-59.5-46.6-99.4 0-18.5 3.9-36.1 10.9-52q3.7-8.4 8.5-16.1c22.8-36.8 63.6-61.4 110.1-61.4 7.2 0 14.3 0.6 21.3 1.8 61.3 10.1 108.1 63.4 108.2 127.7zm-109.5 0.7l50.4-50.4c3.3-3.3 3.3-8.5 0-11.8l-4-4c-3.2-3.2-8.5-3.2-11.7 0l-50.4 50.4-52-52q-0.6-0.6-1.3-1c-2.7-1.8-6.3-1.8-9.1 0q-0.7 0.4-1.3 1l-4.3 4.4c-2.9 2.9-3.2 7.4-0.9 10.6q0.4 0.6 0.9 1.1l51.9 52-50.6 50.6c-3.2 3.2-3.2 8.5 0 11.7l4 4c3.3 3.3 8.5 3.3 11.8 0l50.6-50.6 49.3 49.4c3.3 3.2 8.5 3.2 11.7 0l4.4-4.4c3.2-3.2 3.2-8.4 0-11.7z" fill="#ffb3b3"/>

</svg>